<svg xmlns="http://www.w3.org/2000/svg" viewBox="0 0 1536 695" preserveAspectRatio="xMidYMid" width="1536" height="695" xmlns:xlink="http://www.w3.org/1999/xlink" style="shape-rendering:auto;display:block;background-position-x:0%;background-position-y:0%;background-size:auto;background-origin:padding-box;background-clip:border-box;background:scroll rgb(255, 255, 255) none  repeat;width:1536px;height:695px;;animation:none"><g><defs><filter height="151" width="12" y="-6" x="-6" filterUnits="userSpaceOnUse" id="f-2fhkv18fma"><feGaussianBlur result="blur1" stdDeviation="5"></feGaussianBlur>

    
<feMorphology result="dilate" in="SourceGraphic" radius="1.25" operator="dilate"></feMorphology>

    
<feComponentTransfer result="dark" in="dilate"><feFuncR slope="0.33" type="linear"></feFuncR>

    
<feFuncG slope="0.33" type="linear"></feFuncG>

    
<feFuncB slope="0.33" type="linear"></feFuncB></feComponentTransfer>

    
<feGaussianBlur result="blur2" in="dark" stdDeviation="2.50"></feGaussianBlur>

    
<feMerge><feMergeNode in="blur1"></feMergeNode>

      
<feMergeNode in="blur2"></feMergeNode>

      
<feMergeNode in="SourceGraphic"></feMergeNode></feMerge></filter></defs>
<path stroke-width="1" stroke="#004d73" d="M296.73 0L296.73 695" style="stroke:rgb(0, 77, 115);;animation:none"></path>


<path filter="url(#f-2fhkv18fma)" fill="#dbebfa" d="M0 0L-1 139 A1 1 0 0 0 1 139 Z" transform="matrix(1,0,0,1,296.7300109863281,282.66387939453125)" style="fill:rgb(219, 235, 250);transform:matrix(1, 0, 0, 1, 296.73, 282.664);;animation:none"></path>
<path stroke-width="1" stroke="#004d73" d="M401.45 0L401.45 695" style="stroke:rgb(0, 77, 115);;animation:none"></path>


<path filter="url(#f-2fhkv18fma)" fill="#dbebfa" d="M0 0L-1 139 A1 1 0 0 0 1 139 Z" transform="matrix(1,0,0,1,401.45001220703125,83.60505676269531)" style="fill:rgb(219, 235, 250);transform:matrix(1, 0, 0, 1, 401.45, 83.6051);;animation:none"></path>
<path stroke-width="1" stroke="#004d73" d="M506.18 0L506.18 695" style="stroke:rgb(0, 77, 115);;animation:none"></path>


<path filter="url(#f-2fhkv18fma)" fill="#007fbd" d="M0 0L-1 139 A1 1 0 0 0 1 139 Z" transform="matrix(1,0,0,1,506.17999267578125,55.168060302734375)" style="fill:rgb(0, 127, 189);transform:matrix(1, 0, 0, 1, 506.18, 55.1681);;animation:none"></path>
<path stroke-width="1" stroke="#004d73" d="M610.91 0L610.91 695" style="stroke:rgb(0, 77, 115);;animation:none"></path>


<path filter="url(#f-2fhkv18fma)" fill="#00334e" d="M0 0L-1 139 A1 1 0 0 0 1 139 Z" transform="matrix(1,0,0,1,610.9099731445312,365.60504150390625)" style="fill:rgb(0, 51, 78);transform:matrix(1, 0, 0, 1, 610.91, 365.605);;animation:none"></path>
<path stroke-width="1" stroke="#004d73" d="M715.64 0L715.64 695" style="stroke:rgb(0, 77, 115);;animation:none"></path>


<path filter="url(#f-2fhkv18fma)" fill="#00334e" d="M0 0L-1 139 A1 1 0 0 0 1 139 Z" transform="matrix(1,0,0,1,715.6400146484375,413)" style="fill:rgb(0, 51, 78);transform:matrix(1, 0, 0, 1, 715.64, 413);;animation:none"></path>
<path stroke-width="1" stroke="#004d73" d="M820.36 0L820.36 695" style="stroke:rgb(0, 77, 115);;animation:none"></path>


<path filter="url(#f-2fhkv18fma)" fill="#007fbd" d="M0 0L-1 139 A1 1 0 0 0 1 139 Z" transform="matrix(1,0,0,1,820.3599853515625,-64.50420379638672)" style="fill:rgb(0, 127, 189);transform:matrix(1, 0, 0, 1, 820.36, -64.5042);;animation:none"></path>
<path stroke-width="1" stroke="#004d73" d="M925.09 0L925.09 695" style="stroke:rgb(0, 77, 115);;animation:none"></path>


<path filter="url(#f-2fhkv18fma)" fill="#007fbd" d="M0 0L-1 139 A1 1 0 0 0 1 139 Z" transform="matrix(1,0,0,1,925.0900268554688,684.3361206054688)" style="fill:rgb(0, 127, 189);transform:matrix(1, 0, 0, 1, 925.09, 684.336);;animation:none"></path>
<path stroke-width="1" stroke="#004d73" d="M1029.82 0L1029.82 695" style="stroke:rgb(0, 77, 115);;animation:none"></path>


<path filter="url(#f-2fhkv18fma)" fill="#007fbd" d="M0 0L-1 139 A1 1 0 0 0 1 139 Z" transform="matrix(1,0,0,1,1029.8199462890625,261.33612060546875)" style="fill:rgb(0, 127, 189);transform:matrix(1, 0, 0, 1, 1029.82, 261.336);;animation:none"></path>
<path stroke-width="1" stroke="#004d73" d="M1134.55 0L1134.55 695" style="stroke:rgb(0, 77, 115);;animation:none"></path>


<path filter="url(#f-2fhkv18fma)" fill="#dbebfa" d="M0 0L-1 139 A1 1 0 0 0 1 139 Z" transform="matrix(1,0,0,1,1134.550048828125,19.621856689453125)" style="fill:rgb(219, 235, 250);transform:matrix(1, 0, 0, 1, 1134.55, 19.6219);;animation:none"></path>
<path stroke-width="1" stroke="#004d73" d="M1239.27 0L1239.27 695" style="stroke:rgb(0, 77, 115);;animation:none"></path>


<path filter="url(#f-2fhkv18fma)" fill="#dbebfa" d="M0 0L-1 139 A1 1 0 0 0 1 139 Z" transform="matrix(1,0,0,1,1239.27001953125,225.7899169921875)" style="fill:rgb(219, 235, 250);transform:matrix(1, 0, 0, 1, 1239.27, 225.79);;animation:none"></path>
<g></g></g><!-- [ldio] generated by https://loading.io --></svg>